<svg width="382" height="146" viewBox="0 0 382 146" fill="none" xmlns="http://www.w3.org/2000/svg">
<path d="M214 15.9999C214 9.89198 164.052 12.5605 161.5 12.5M161.5 12.5C5.41766 8.79477 -28.5735 99.898 31 115.698C63.292 129.347 187.5 136 235 133.5C272.5 136 405.411 94.8222 373.119 51.4652C340.827 8.10827 192 12.0268 161.5 12.5Z" stroke="white" stroke-width="2"/>
<path d="M217.4 17.5069C217.769 11.4101 167.75 11.0572 165.207 10.8427M165.207 10.8427C9.63323 -2.2821 -29.7979 86.602 28.7127 105.971C60.1213 121.546 183.701 135.687 231.265 136.061C268.546 140.821 403.701 107.745 374.087 62.5172C344.472 17.2891 195.68 12.2124 165.207 10.8427Z" stroke="white" stroke-width="2"/>
</svg>
