<svg width="283" height="112" viewBox="0 0 283 112" fill="none" xmlns="http://www.w3.org/2000/svg">
<path d="M162.555 20.3948C162.696 16.4992 126.415 16.6001 124.566 16.4797M124.566 16.4797C11.4718 9.11352 -15.2712 66.1276 27.5639 78.114C50.6658 87.8544 140.58 96.0788 175.081 96.0069C202.216 98.8034 299.54 76.8014 277.122 48.1142C254.703 19.427 146.694 17.1556 124.566 16.4797Z" stroke="#222222" stroke-width="4"/>
<path d="M162.555 20.3948C162.696 16.4992 126.415 16.6001 124.566 16.4797M124.566 16.4797C11.4718 9.11352 -15.2712 66.1276 27.5639 78.114C50.6658 87.8544 140.58 96.0788 175.081 96.0069C202.216 98.8034 299.54 76.8014 277.122 48.1142C254.703 19.427 146.694 17.1556 124.566 16.4797Z" stroke="#222222" stroke-width="4"/>
<path d="M159.634 22.0083C160.039 18.1355 123.855 15.2135 122.019 14.9393M122.019 14.9393C9.74586 -1.8285 -20.7961 52.7959 21.103 68.3171C43.4774 79.9546 132.577 95.6469 166.986 98.4497C193.853 103.499 292.398 89.6681 271.992 59.1943C251.586 28.7206 144.038 17.4568 122.019 14.9393Z" stroke="#222222" stroke-width="4"/>
<path d="M159.634 22.0083C160.039 18.1355 123.855 15.2135 122.019 14.9393M122.019 14.9393C9.74586 -1.8285 -20.7961 52.7959 21.103 68.3171C43.4774 79.9546 132.577 95.6469 166.986 98.4497C193.853 103.499 292.398 89.6681 271.992 59.1943C251.586 28.7206 144.038 17.4568 122.019 14.9393Z" stroke="#222222" stroke-width="4"/>
</svg>
