<svg width="115" height="68" viewBox="0 0 115 68" fill="none" xmlns="http://www.w3.org/2000/svg">
<path d="M13.3361 17.8032C13.3361 13.1088 17.1416 9.30322 21.8361 9.30322H104.393C109.088 9.30322 112.893 13.1088 112.893 17.8032V58C112.893 62.6944 109.088 66.4999 104.393 66.4999H21.8361C17.1416 66.4999 13.3361 62.6944 13.3361 57.9999V17.8032Z" stroke="#FFA41D" stroke-width="3"/>
<path d="M1.5 9.99999C1.5 5.30557 5.30558 1.5 10 1.5H92.5574C97.2518 1.5 101.057 5.30558 101.057 10V50.1967C101.057 54.8911 97.2518 58.6967 92.5574 58.6967H10C5.30558 58.6967 1.5 54.8911 1.5 50.1967V9.99999Z" stroke="#FFA41D" stroke-width="3"/>
<path d="M75.0863 39.4142C75.8674 38.6332 75.8674 37.3668 75.0863 36.5858L62.3584 23.8579C61.5774 23.0768 60.311 23.0768 59.53 23.8579C58.7489 24.6389 58.7489 25.9052 59.53 26.6863L70.8437 38L59.53 49.3137C58.7489 50.0948 58.7489 51.3611 59.53 52.1421C60.311 52.9232 61.5774 52.9232 62.3584 52.1421L75.0863 39.4142ZM38 40H73.6721V36H38V40Z" fill="#FFA41D"/>
</svg>
